<?xml version="1.0" standalone="no"?>
<!DOCTYPE svg PUBLIC "-//W3C//DTD SVG 20010904//EN"
 "http://www.w3.org/TR/2001/REC-SVG-20010904/DTD/svg10.dtd">
<svg version="1.0" xmlns="http://www.w3.org/2000/svg"
 width="512.000000pt" height="512.000000pt" viewBox="0 0 512.000000 512.000000"
 preserveAspectRatio="xMidYMid meet">

<g transform="translate(0.000000,512.000000) scale(0.100000,-0.100000)"
fill="#000000" stroke="none">
<path d="M2315 5109 c-800 -83 -1501 -518 -1927 -1196 -487 -774 -516 -1777
-75 -2578 200 -364 487 -676 841 -913 238 -159 600 -311 876 -366 214 -43 295
-51 530 -51 236 0 333 10 532 51 879 183 1616 843 1897 1699 93 282 126 493
126 805 0 301 -32 513 -116 775 -124 390 -330 728 -622 1024 -399 404 -893
653 -1462 737 -123 18 -478 26 -600 13z m422 -1289 c98 -49 143 -128 143 -257
0 -89 -30 -162 -86 -212 -61 -53 -128 -75 -234 -75 -103 0 -171 21 -229 70
-62 54 -84 103 -89 206 -4 76 -1 92 20 140 57 121 155 171 326 164 69 -3 94
-9 149 -36z m86 -759 c16 -12 17 -87 17 -892 0 -784 -2 -879 -16 -893 -23 -24
-505 -24 -528 0 -14 14 -16 106 -14 897 l3 881 25 13 c36 19 490 14 513 -6z"/>
</g>
</svg>
