<?xml version="1.0" standalone="no"?>
<!DOCTYPE svg PUBLIC "-//W3C//DTD SVG 20010904//EN"
 "http://www.w3.org/TR/2001/REC-SVG-20010904/DTD/svg10.dtd">
<svg version="1.0" xmlns="http://www.w3.org/2000/svg"
 width="1023.000000pt" height="1024.000000pt" viewBox="0 0 1023.000000 1024.000000"
 preserveAspectRatio="xMidYMid meet">

<g transform="translate(0.000000,1024.000000) scale(0.100000,-0.100000)"
fill="#000000" stroke="none">
<path d="M0 5120 l0 -5120 5115 0 5115 0 0 5120 0 5120 -5115 0 -5115 0 0
-5120z m2273 3299 c32 -5 99 -27 150 -48 107 -44 291 -107 427 -146 116 -33
159 -55 215 -106 45 -41 80 -112 73 -145 -3 -14 -13 -1 -36 42 -53 104 -105
135 -337 205 -77 23 -192 65 -255 94 -136 63 -228 95 -270 95 -16 0 -30 5 -30
10 0 12 -6 12 63 -1z m5697 -40 c-36 -5 -171 -46 -300 -90 -129 -45 -248 -84
-265 -89 -83 -22 -204 -91 -282 -163 l-47 -42 20 34 c27 48 107 115 178 150
156 76 608 211 706 209 l55 0 -65 -9z m943 -27 c27 -24 18 -63 -21 -88 -18
-12 -65 -28 -105 -35 -87 -15 -99 -23 -56 -38 25 -8 29 -14 20 -24 -25 -30
-209 -89 -321 -103 -30 -3 -73 -9 -95 -11 -22 -3 -59 -6 -82 -7 -23 0 -40 -3
-37 -7 2 -3 -27 -9 -64 -13 -37 -4 -77 -9 -89 -13 -14 -3 -23 -1 -23 6 0 6 17
11 38 11 24 0 32 3 23 9 -7 5 -31 4 -53 0 -21 -5 -43 -7 -49 -4 -5 4 -9 1 -9
-4 0 -6 5 -11 10 -11 6 0 10 -5 10 -12 0 -19 -31 15 -34 38 -2 10 -11 18 -19
18 -13 -1 -14 2 -6 17 12 23 9 23 48 3 17 -8 37 -14 44 -11 6 2 -4 9 -24 16
-21 7 -39 20 -42 31 -3 11 -19 23 -38 29 -19 5 -28 10 -21 10 6 1 12 6 12 12
0 5 -4 8 -9 5 -12 -8 -41 4 -41 16 0 6 6 6 14 -2 11 -8 20 -9 33 -1 16 9 15
10 -7 11 -20 0 -22 2 -10 11 11 8 5 9 -25 5 -118 -17 -148 -19 -141 -8 5 8 -2
12 -21 13 -42 1 95 37 212 54 55 9 136 22 180 30 236 43 624 78 735 67 25 -3
53 -12 63 -20z m-7073 -7 c96 -9 252 -31 345 -49 94 -19 186 -37 206 -40 20
-4 63 -17 95 -31 70 -29 44 -33 -53 -9 -71 18 -108 14 -50 -5 20 -7 37 -17 37
-22 0 -12 -23 -11 -57 2 -37 15 -123 18 -123 4 0 -5 -9 -16 -20 -23 -16 -10
-18 -16 -10 -38 10 -25 5 -63 -9 -74 -4 -3 -15 -16 -25 -30 -18 -24 -18 -24
-13 -2 3 12 1 20 -4 16 -5 -3 -9 -14 -9 -25 0 -10 -5 -19 -11 -19 -5 0 -7 5
-4 10 3 6 -1 10 -9 10 -10 0 -13 -6 -10 -15 4 -8 1 -15 -5 -15 -6 0 -11 7 -11
16 0 11 -6 14 -20 9 -44 -14 -123 22 -102 47 8 11 -3 13 -61 10 -43 -2 -100 3
-142 13 -38 9 -100 20 -137 25 -101 13 -215 70 -141 70 22 0 10 9 -54 40 -64
32 -84 46 -89 66 -10 37 13 54 87 63 101 13 211 12 399 -4z m780 -98 c30 -12
64 -27 74 -34 18 -10 18 -11 -4 -18 -17 -5 -27 -3 -37 11 -7 10 -13 14 -13 10
0 -4 -7 0 -16 8 -8 9 -20 14 -25 11 -5 -3 -19 3 -31 14 -28 27 -16 26 52 -2z
m5100 -49 c0 -6 -7 -7 -16 -4 -9 3 -20 6 -25 6 -6 0 -8 4 -5 9 8 12 46 2 46
-11z m-290 -61 c11 -3 18 0 17 7 -1 6 4 11 12 11 20 0 22 -32 4 -50 -8 -8 -24
-15 -36 -15 -12 0 -29 -5 -37 -10 -13 -8 48 -7 92 2 9 2 13 -8 13 -32 0 -30
-5 -37 -35 -51 -34 -16 -34 -17 -10 -20 21 -3 25 -9 24 -36 -2 -29 1 -33 23
-33 17 0 22 -4 17 -12 -5 -9 -2 -9 9 1 11 9 17 9 17 2 0 -6 -9 -16 -20 -23
-11 -7 -20 -18 -20 -23 0 -6 -16 -11 -36 -12 -20 -1 -41 -6 -48 -13 -8 -9 -6
-11 9 -10 33 4 41 0 25 -10 -13 -8 -13 -10 2 -10 9 0 20 -5 24 -12 5 -8 -2 -9
-24 -5 -32 7 -40 -1 -22 -19 7 -7 1 -10 -18 -9 -21 0 -28 5 -30 24 -2 13 2 27
8 31 7 4 -4 10 -27 14 -21 4 -45 9 -54 12 -12 3 -18 -4 -23 -28 -9 -47 -61
-108 -92 -108 -20 0 -24 -4 -20 -18 4 -11 -5 -29 -23 -50 -28 -30 -34 -32 -98
-32 l-68 -1 39 -14 c92 -33 82 -70 -16 -61 -35 4 -58 2 -58 -4 0 -10 6 -12 52
-14 39 -2 42 -11 11 -34 -30 -21 -66 -31 -128 -34 -28 -1 -49 -10 -69 -30 -17
-15 -38 -28 -49 -28 -11 0 -17 -5 -14 -12 2 -8 17 -12 35 -10 33 3 72 -12 72
-28 0 -5 -7 -6 -17 -3 -10 4 -14 2 -10 -4 14 -22 -5 -43 -37 -43 -37 0 -64 14
-47 24 6 4 11 14 11 22 0 11 -8 7 -27 -11 -15 -14 -34 -25 -42 -25 -8 0 -12
-3 -8 -6 3 -3 28 -7 57 -9 50 -2 77 -14 53 -22 -6 -2 -31 -19 -55 -36 -39 -29
-41 -32 -20 -35 13 -2 28 1 35 6 7 6 33 13 58 17 35 5 48 3 59 -9 11 -14 10
-19 -6 -31 -10 -8 -26 -12 -34 -8 -8 4 -40 8 -70 9 -30 1 -63 5 -73 9 -19 8
-87 -20 -87 -35 0 -14 10 -12 45 6 27 14 31 14 41 -1 8 -10 14 -12 19 -6 13
23 104 12 166 -20 59 -29 60 -31 43 -50 -20 -22 -42 -24 -79 -7 -29 13 -49 2
-22 -13 23 -14 5 -49 -26 -49 -20 -1 -21 -2 -4 -14 15 -12 15 -15 2 -26 -21
-17 -53 -16 -106 5 -31 12 -52 15 -65 10 -15 -8 -12 -10 19 -13 20 -2 37 -8
37 -14 0 -6 7 -20 17 -30 9 -11 11 -18 5 -18 -7 0 -12 5 -12 10 0 6 -4 10 -9
10 -5 0 -4 -18 1 -40 12 -45 8 -52 -25 -56 -12 -1 -24 -3 -27 -3 -3 -1 9 -12
25 -26 l30 -24 -39 -36 c-46 -40 -43 -40 -62 -20 -9 8 -25 15 -36 15 -21 0
-21 0 2 -24 46 -50 -9 -87 -91 -62 -27 7 -49 11 -49 8 0 -3 14 -20 31 -38 30
-31 31 -32 9 -39 -12 -4 -37 -4 -56 0 -41 7 -44 1 -8 -18 20 -10 35 -11 65 -3
36 9 41 8 67 -17 66 -64 -1 -109 -78 -52 -55 41 -49 29 18 -34 62 -59 74 -75
48 -65 -8 3 -16 -4 -19 -17 -5 -17 -10 -20 -29 -14 -13 4 -35 8 -50 9 -15 0
-34 10 -42 21 -17 22 -22 9 -6 -15 13 -20 -26 -60 -59 -61 l-26 0 23 -10 c13
-5 32 -19 42 -31 17 -22 17 -22 -20 -39 -20 -9 -40 -26 -42 -37 -3 -12 -17
-24 -32 -28 -20 -5 -31 0 -51 23 l-25 28 6 -27 c4 -18 2 -26 -8 -25 -33 1 -47
-4 -51 -20 -5 -23 -26 54 -23 84 1 13 25 51 52 85 91 114 114 156 164 297 57
163 76 202 124 259 41 50 65 110 117 301 59 211 85 254 198 320 79 47 111 80
183 188 29 45 94 126 144 180 50 54 119 130 152 170 65 76 100 105 154 127 27
12 34 12 36 1 2 -7 12 -15 22 -18z m-4544 -2 c79 -35 125 -74 180 -155 26 -39
74 -90 106 -116 78 -61 88 -72 163 -184 74 -110 100 -137 193 -200 39 -26 80
-64 97 -91 32 -47 71 -160 100 -289 22 -95 66 -188 116 -246 51 -60 52 -61 94
-203 35 -119 71 -203 121 -283 27 -42 30 -53 12 -42 -9 5 -9 2 1 -9 21 -26 -3
-20 -38 9 -21 17 -37 23 -50 19 -11 -3 -36 -2 -56 4 -21 5 -35 6 -35 0 0 -5
12 -9 26 -9 l27 0 -26 -20 c-14 -11 -34 -20 -45 -20 -11 0 -23 -6 -25 -12 -3
-7 -6 -3 -6 9 -1 12 8 28 19 36 10 7 24 26 30 41 l10 28 -34 -30 c-42 -36 -76
-49 -86 -32 -4 7 -13 9 -19 6 -6 -4 -14 0 -17 9 -10 26 62 122 102 137 23 8
34 18 34 32 0 18 -2 18 -27 -6 -34 -31 -125 -78 -152 -78 -11 0 -23 5 -26 10
-9 14 14 42 28 33 6 -3 7 -1 3 5 -4 6 6 19 21 29 15 10 34 24 42 31 10 9 28
12 53 9 28 -4 44 0 61 13 22 19 22 19 -30 13 -44 -5 -54 -3 -59 12 -5 11 -1
21 11 27 26 15 1 27 -44 21 -29 -4 -40 0 -60 20 -30 33 -19 51 25 44 19 -3 34
-2 34 3 0 8 -25 17 -102 34 -36 8 -37 37 -2 69 25 24 25 24 5 30 -12 3 -21 1
-21 -4 0 -5 -9 -4 -20 3 -11 7 -18 20 -15 28 4 11 1 10 -8 -2 -12 -15 -17 -16
-32 -4 -22 16 -10 25 40 31 36 5 93 45 64 45 -8 0 -25 3 -39 6 -20 4 -22 3
-10 -5 13 -9 13 -11 -1 -11 -39 0 -109 13 -109 21 0 5 9 17 20 26 30 26 24 34
-20 27 -24 -4 -45 -2 -54 5 -7 6 -20 9 -28 6 -18 -7 -42 20 -35 39 3 8 1 17
-6 19 -9 3 -9 7 1 19 12 15 53 32 141 59 24 7 37 15 30 18 -37 15 -69 45 -69
65 0 14 -16 32 -51 56 -64 43 -66 48 -33 60 15 6 25 13 22 15 -4 4 -42 13 -64
14 -5 1 -20 11 -33 22 -18 17 -22 28 -16 55 l6 33 -43 -13 c-24 -8 -50 -17
-59 -20 -10 -4 -20 -3 -24 3 -3 6 -1 11 6 11 10 0 10 3 1 12 -7 7 -12 15 -12
18 0 13 48 29 71 23 l24 -5 -25 21 c-14 11 -28 21 -31 21 -14 0 -4 30 10 30 9
0 23 5 31 11 11 7 -3 9 -50 4 -60 -5 -66 -4 -79 16 -12 21 -11 25 13 44 l27
22 -73 12 c-117 20 -125 25 -94 60 13 14 11 16 -14 17 -16 1 -27 -3 -24 -7 3
-5 -2 -6 -10 -3 -21 8 -20 13 5 40 l20 22 -54 6 c-69 9 -117 38 -117 70 0 13
6 27 13 29 9 4 8 8 -3 16 -13 10 -13 12 0 21 13 9 13 11 0 20 -8 5 -21 10 -27
10 -7 0 -13 4 -13 9 0 5 6 11 13 14 10 4 10 7 0 18 -21 22 -15 28 19 18 44
-12 55 -11 55 5 0 8 -8 11 -19 8 -10 -2 -18 1 -18 7 0 7 5 9 10 6 6 -3 10 0
10 8 0 8 -12 18 -27 22 -25 7 -26 8 -8 14 19 8 19 8 0 19 -36 21 4 12 61 -13z
m1764 -47 c22 -18 40 -37 40 -42 0 -6 -15 4 -33 22 -18 18 -43 32 -55 32 -12
0 -22 5 -22 10 0 20 32 9 70 -22z m-98 -43 c-19 -19 -66 -50 -103 -70 -37 -19
-70 -40 -72 -45 -3 -6 -4 -5 -3 2 2 7 38 35 82 61 92 55 119 84 101 107 -7 8
-2 7 10 -3 l21 -19 -36 -33z m881 30 c117 -24 246 -63 300 -89 44 -21 52 -22
75 -10 51 27 95 14 121 -34 12 -22 11 -23 -8 -13 -11 6 -23 16 -26 21 -7 11
-64 14 -89 4 -9 -3 -13 -11 -9 -17 4 -6 1 -8 -8 -4 -161 68 -304 107 -439 117
-52 4 -77 8 -55 10 l40 2 -40 9 c-22 4 -83 8 -135 9 -52 0 -102 5 -110 11 -24
17 290 4 383 -16z m-200 -12 c-7 -2 -21 -2 -30 0 -10 3 -4 5 12 5 17 0 24 -2
18 -5z m-3021 -50 c-6 -3 -9 -10 -6 -15 4 -7 2 -8 -5 -4 -9 6 -9 11 0 22 6 8
15 12 18 8 3 -4 0 -9 -7 -11z m3088 -53 c310 -38 660 -210 822 -402 96 -113
184 -277 214 -398 17 -69 16 -210 -2 -243 -8 -13 -9 -2 -6 41 5 69 -18 168
-54 229 -13 23 -55 76 -92 117 -37 40 -87 102 -111 136 -88 124 -295 269 -476
333 -176 62 -404 92 -583 77 -315 -28 -605 -170 -798 -391 -132 -151 -219
-308 -249 -448 -20 -95 -19 -140 4 -202 14 -35 15 -47 6 -39 -22 18 -46 100
-52 177 -10 122 25 281 92 413 89 177 292 370 490 467 240 117 529 165 795
133z m1764 -16 c3 -8 2 -12 -4 -9 -6 3 -10 10 -10 16 0 14 7 11 14 -7z m1241
-19 c116 -14 289 -34 385 -45 222 -25 284 -38 323 -64 36 -24 45 -50 26 -73
-24 -28 -55 -36 -269 -68 -58 -8 -114 -20 -125 -25 -35 -16 -75 -20 -255 -26
-195 -7 -220 -8 -223 -3 -1 2 -17 23 -35 46 -17 23 -32 46 -32 52 0 5 -3 11
-8 13 -14 6 -72 83 -72 95 0 7 8 13 17 13 13 0 11 6 -10 28 -32 34 -34 42 -7
35 26 -7 25 5 -2 35 l-23 25 50 -7 c28 -4 145 -18 260 -31z m-6185 -10 c-12
-15 -3 -25 22 -25 32 0 38 -39 13 -85 -12 -22 -20 -45 -18 -52 2 -6 -5 -21
-15 -31 -11 -11 -23 -34 -27 -51 -7 -35 -36 -55 -64 -46 -10 3 -31 0 -47 -6
-16 -6 -71 -11 -123 -11 -75 1 -96 4 -103 16 -7 12 -14 14 -27 6 -12 -6 -39
-6 -77 2 -33 6 -70 11 -84 11 -61 0 -234 28 -258 41 -15 8 -47 22 -72 31 -62
23 -84 43 -68 63 40 48 262 96 544 118 111 8 239 21 285 27 95 14 135 11 119
-8z m630 -29 c0 -8 7 -22 16 -30 14 -15 13 -16 -8 -17 l-23 0 24 -10 c23 -9
24 -10 5 -24 -22 -16 -74 -20 -74 -5 0 6 6 10 13 10 6 0 4 5 -6 11 -9 6 -26 7
-37 4 -13 -4 -22 0 -29 13 -13 24 -1 36 49 50 51 15 70 14 70 -2z m3200 -11
c0 -15 9 -29 22 -36 18 -10 30 -7 73 16 43 24 57 27 90 20 l40 -8 -56 -12
c-31 -6 -73 -22 -93 -34 -40 -25 -46 -24 -111 33 -31 27 -27 40 15 43 15 1 20
-4 20 -22z m1547 -77 c-3 -8 -6 -5 -6 6 -1 11 2 17 5 13 3 -3 4 -12 1 -19z
m-4713 -68 c-5 -4 -20 -11 -34 -14 -23 -7 -24 -6 -7 8 18 14 17 15 -15 18
l-33 3 30 16 c28 14 31 14 49 -4 10 -10 14 -22 10 -27z m677 -12 c15 -28 5
-21 -21 15 -15 20 -17 27 -6 18 9 -8 22 -23 27 -33z m-1261 -8 c0 -5 -2 -10
-4 -10 -3 0 -8 5 -11 10 -3 6 -1 10 4 10 6 0 11 -4 11 -10z m-50 -15 c0 -8 -4
-15 -10 -15 -20 0 -9 -19 13 -22 l22 -3 -23 -13 c-13 -8 -30 -11 -38 -8 -12 5
-11 11 3 41 17 36 33 46 33 20z m640 -9 c0 -3 -4 -8 -10 -11 -5 -3 -10 -1 -10
4 0 6 5 11 10 11 6 0 10 -2 10 -4z m5400 -150 c82 -15 96 -20 197 -67 171 -80
255 -122 338 -170 50 -29 126 -68 170 -87 112 -49 127 -60 123 -91 -2 -20 -11
-28 -43 -37 -51 -16 -161 -17 -245 -3 -36 6 -74 11 -85 11 -11 0 -55 12 -98
27 -72 23 -79 24 -88 9 -7 -12 -20 -16 -44 -14 -19 1 -36 4 -38 7 -2 2 -14 21
-26 42 -31 50 -41 38 -12 -13 12 -22 21 -40 19 -40 -20 1 -104 33 -110 43 -16
25 -7 30 15 9 43 -40 46 -22 4 21 -138 143 -217 231 -211 236 4 3 9 0 11 -6 3
-7 9 -13 14 -13 11 0 -3 31 -24 52 -7 7 -23 27 -35 44 l-22 32 28 6 c20 4 51
-7 124 -44 112 -58 248 -121 248 -115 0 2 -20 16 -45 31 -25 14 -45 30 -45 35
0 5 -7 9 -15 9 -13 0 -192 84 -204 96 -7 7 21 4 99 -10z m-6163 -55 c7 -3 9
-11 5 -17 -11 -18 -218 -94 -295 -109 -40 -8 -85 -19 -102 -25 -30 -10 -30
-10 5 -4 19 3 58 7 85 10 49 6 287 86 372 126 68 32 60 16 -13 -26 -69 -39
-82 -59 -20 -30 36 18 54 15 41 -6 -4 -6 -13 -9 -20 -7 -8 4 -11 -3 -9 -23 3
-24 -8 -40 -72 -102 -80 -77 -110 -117 -80 -105 51 21 52 21 29 -5 -26 -27
-32 -48 -7 -24 8 9 21 16 27 16 22 -1 -34 -39 -71 -50 -56 -15 -125 -13 -119
4 4 11 -5 10 -41 -4 -100 -38 -225 -53 -249 -29 -7 7 -28 6 -72 -6 -66 -17
-120 -13 -158 13 -36 23 -28 53 23 86 100 63 405 218 512 260 48 19 107 43
132 55 41 19 65 19 97 2z m3206 -3 c10 -5 35 -7 55 -4 27 5 53 0 95 -17 64
-27 81 -38 45 -31 -12 3 0 -7 27 -23 28 -16 62 -41 76 -55 37 -37 94 -51 129
-33 16 8 38 27 49 41 13 16 21 21 21 12 0 -8 -14 -28 -31 -45 -22 -24 -47 -36
-99 -47 -38 -9 -79 -16 -92 -16 -19 0 -20 -2 -8 -10 23 -15 122 -11 144 5 11
8 25 15 30 15 26 -1 -42 -40 -68 -40 -42 0 -18 -22 27 -25 19 -1 40 -5 46 -9
6 -4 26 -5 44 -2 30 6 31 5 7 -5 -40 -18 -258 -11 -332 11 -78 22 -141 49
-150 63 -4 6 -18 -2 -37 -21 -29 -29 -43 -61 -21 -47 15 9 93 -39 124 -76 25
-29 66 -101 66 -114 0 -3 -21 -5 -47 -5 -60 -1 -154 -22 -154 -35 -1 -6 -5
-16 -11 -23 -8 -9 -5 -18 11 -34 19 -17 27 -19 47 -9 15 6 24 7 24 1 0 -6 -6
-10 -12 -11 -7 -1 -2 -4 12 -9 17 -5 35 -2 58 11 42 24 45 24 39 -3 -5 -21 -5
-21 6 -4 7 10 20 28 29 40 17 21 17 20 18 -20 0 -25 -7 -51 -18 -65 -11 -13
-22 -37 -26 -53 -6 -26 -5 -28 8 -17 13 11 16 11 16 0 0 -35 -76 -125 -158
-188 -80 -61 -104 -58 -192 25 -40 38 -70 75 -70 86 0 10 -3 17 -8 15 -4 -3
-8 18 -10 46 -2 28 -9 62 -17 77 -21 42 -26 80 -10 80 8 0 17 -4 20 -10 9 -15
82 -12 88 3 3 9 18 12 41 11 65 -5 40 37 -44 75 -48 22 -100 28 -100 11 0 -5
9 -10 19 -10 11 0 23 -5 27 -11 4 -8 -1 -9 -17 -4 -36 11 -39 17 -27 63 15 58
81 116 162 141 58 18 61 20 72 62 6 24 18 63 26 85 14 40 14 41 -5 36 -11 -3
-22 -13 -24 -23 -3 -10 -12 -20 -20 -23 -8 -3 -11 -10 -8 -16 3 -5 -1 -10 -11
-10 -9 0 -22 -8 -29 -17 -11 -15 -16 -16 -37 -4 -23 12 -30 9 -89 -33 -62 -44
-66 -49 -113 -156 -52 -118 -93 -170 -160 -205 -21 -11 -38 -24 -37 -28 2 -10
-20 -32 -39 -40 -13 -5 -13 -6 1 -6 8 -1 33 15 55 35 53 47 89 65 42 20 -47
-45 -32 -48 18 -3 29 24 35 27 26 10 -7 -12 -31 -38 -54 -58 -35 -31 -39 -37
-19 -32 16 4 21 3 14 -4 -12 -12 -141 -45 -233 -59 -36 -6 -73 -13 -84 -16
-12 -4 -16 -2 -12 5 4 6 0 11 -11 12 -16 1 -16 2 2 6 10 3 30 12 42 20 13 9
26 13 30 10 3 -4 -5 -11 -18 -16 -21 -9 -21 -10 -4 -10 11 -1 43 10 70 24 l50
25 -45 -6 c-42 -6 -44 -5 -30 11 14 17 13 17 -5 8 -29 -15 -95 -23 -95 -12 0
5 -10 9 -22 9 -21 0 -21 1 -3 14 17 12 15 14 -19 20 -28 5 -36 11 -32 22 3 9
1 12 -4 9 -6 -3 -10 -3 -10 2 0 4 -3 19 -7 33 -6 23 -5 23 21 -7 17 -21 37
-33 52 -33 25 0 122 21 199 42 l40 11 -44 8 c-38 7 -111 50 -111 65 0 3 15 2
33 -1 31 -7 31 -7 15 11 -24 28 -41 97 -34 138 11 58 21 49 18 -15 -4 -56 -2
-61 31 -94 30 -30 42 -35 80 -35 38 0 52 6 95 42 56 47 60 58 13 34 -16 -9
-34 -16 -38 -16 -4 1 10 10 32 22 52 27 75 47 75 67 0 36 22 93 46 118 18 19
24 22 20 10 -4 -11 -2 -16 5 -12 5 4 7 14 4 24 -3 11 13 35 50 72 l55 55 -63
-2 c-34 -1 -48 0 -32 3 17 2 34 9 40 14 5 5 21 9 35 9 14 0 65 20 112 44 81
42 89 44 149 39 35 -3 72 -10 82 -15z m-2773 -227 c0 -5 -9 -13 -21 -16 -12
-4 -18 -12 -15 -21 3 -8 1 -14 -4 -14 -6 0 -17 -15 -26 -32 -16 -35 -38 -53
-144 -120 -36 -22 -94 -60 -130 -83 -36 -24 -92 -57 -125 -73 -33 -17 -73 -41
-90 -52 -28 -20 -28 -21 -5 -15 14 4 53 22 87 40 33 19 64 31 67 28 3 -3 27
14 54 39 62 58 113 83 149 73 25 -7 26 -9 8 -14 -56 -19 -140 -65 -157 -86
-10 -13 -28 -27 -40 -31 -16 -5 -18 -8 -7 -15 11 -7 10 -11 -6 -25 -19 -15
-19 -15 5 -2 59 34 103 25 58 -12 -20 -17 -21 -19 -5 -20 10 0 27 5 38 10 29
16 23 -1 -14 -40 -33 -35 -97 -124 -97 -134 0 -13 31 -5 36 9 4 10 13 13 25
10 11 -4 19 -2 19 5 0 6 -4 8 -10 5 -5 -3 -10 -1 -10 5 0 7 8 9 21 5 15 -5 20
-3 17 6 -3 8 1 19 8 26 24 24 25 13 4 -24 -31 -54 -113 -106 -170 -109 -43 -2
-80 -12 -147 -41 -52 -22 -139 -13 -129 13 3 8 4 14 3 14 -1 0 -36 -7 -76 -16
-42 -8 -91 -12 -112 -9 -44 8 -73 36 -65 62 4 11 65 54 139 98 72 43 170 102
217 131 47 29 146 82 220 118 80 38 148 79 167 98 116 121 177 173 193 163 5
-3 7 0 5 8 -4 8 7 19 27 29 40 20 38 20 38 9z m-440 -65 c0 -2 -8 -10 -17 -17
-16 -13 -17 -12 -4 4 13 16 21 21 21 13z m1410 -6 c0 -5 -6 -10 -14 -10 -7 0
-19 -6 -25 -14 -10 -12 -8 -15 11 -18 21 -4 20 -5 -7 -12 -16 -4 -38 -11 -47
-17 -23 -12 -55 -12 -63 0 -7 13 95 81 123 81 12 0 22 -4 22 -10z m2241 -27
c7 -7 4 -10 -13 -7 -13 2 -44 5 -70 7 l-46 4 30 -48 c42 -69 81 -99 129 -99
48 0 89 20 120 57 15 20 20 22 14 8 -4 -11 -10 -28 -12 -37 -3 -10 -9 -15 -14
-12 -5 3 -9 -3 -9 -13 0 -25 -35 -45 -68 -37 -22 4 -24 3 -12 -6 12 -9 6 -10
-25 -5 -45 8 -121 48 -118 63 1 5 -4 16 -12 22 -8 7 -15 19 -15 27 0 8 -4 11
-10 8 -5 -3 -7 0 -4 9 3 9 -7 27 -26 46 l-31 31 90 -4 c50 -2 96 -8 102 -14z
m340 -111 c-22 -42 -97 -83 -148 -81 -22 1 -18 4 19 14 54 15 114 49 122 70 3
8 8 15 11 15 3 0 1 -8 -4 -18z m2049 -63 c0 -5 7 -9 16 -9 8 0 12 5 9 10 -13
21 33 9 71 -18 50 -35 131 -84 167 -100 42 -18 22 5 -25 29 -43 22 -138 88
-138 96 0 3 35 -14 78 -38 42 -23 160 -85 262 -138 315 -164 360 -201 313
-253 -26 -29 -107 -24 -190 11 -43 19 -69 26 -72 19 -2 -6 4 -17 15 -25 16
-11 12 -13 -32 -12 -27 0 -71 4 -99 9 -27 6 -64 12 -81 14 -32 4 -175 73 -210
102 -18 14 -18 15 3 5 30 -15 40 -14 18 3 -11 8 -16 20 -12 29 4 11 2 14 -9
10 -9 -3 -14 1 -14 14 0 10 -7 28 -15 40 -13 19 -13 22 1 27 8 3 12 2 9 -4 -3
-5 4 -14 16 -21 28 -14 68 -60 69 -77 0 -7 4 -11 9 -8 5 4 -4 34 -21 68 -17
36 -28 71 -25 85 4 20 -5 31 -52 63 -95 66 -121 93 -81 83 11 -3 20 -9 20 -14z
m-2670 -7 c0 -4 -9 -8 -20 -9 -11 -1 -18 2 -15 8 7 11 35 12 35 1z m-985 -50
l30 -37 -32 25 c-17 14 -34 31 -37 38 -10 23 9 11 39 -26z m70 -32 c-3 -5 -12
-7 -20 -3 -21 7 -19 13 6 13 11 0 18 -4 14 -10z m1280 -10 c13 -6 15 -9 5 -9
-8 0 -22 4 -30 9 -18 12 -2 12 25 0z m-60 -20 c4 -6 10 -8 15 -5 5 3 11 1 15
-5 10 -16 -23 -24 -40 -10 -8 7 -15 16 -15 21 0 12 17 11 25 -1z m185 -57 l25
-28 -30 26 c-17 15 -45 34 -62 43 -18 9 -33 19 -33 21 0 12 77 -36 100 -62z
m2280 52 c0 -8 -2 -15 -4 -15 -2 0 -6 7 -10 15 -3 8 -1 15 4 15 6 0 10 -7 10
-15z m-2488 -118 c22 -14 32 -15 47 -6 16 11 27 6 80 -34 34 -26 66 -47 71
-47 6 0 10 -4 10 -10 0 -15 -15 -12 -41 8 -51 39 -60 32 -20 -15 23 -25 39
-48 37 -51 -3 -2 -19 12 -36 32 -18 20 -38 36 -44 36 -7 0 -21 10 -32 22 -16
18 -17 21 -2 15 12 -4 16 -1 15 13 -1 21 -23 34 -39 24 -5 -3 -7 -12 -4 -19 8
-22 -44 1 -81 36 -37 33 -46 64 -10 33 12 -11 34 -28 49 -37z m-16 -54 c19
-18 39 -33 43 -33 13 0 45 -40 38 -47 -4 -3 -2 -12 4 -20 7 -7 -15 1 -47 19
-48 28 -64 44 -91 93 -39 71 -43 103 -8 54 14 -19 41 -49 61 -66z m-3134 60
c-6 -2 -10 -8 -7 -13 2 -4 -20 -30 -50 -58 -51 -48 -67 -72 -47 -72 5 0 19 11
32 25 13 14 28 25 33 25 6 0 -14 -26 -44 -59 -155 -169 -173 -192 -243 -334
-74 -148 -96 -189 -108 -197 -11 -8 -21 -60 -11 -60 4 0 14 9 21 21 7 12 16
18 19 15 4 -3 -1 -14 -10 -23 -8 -10 -16 -22 -16 -26 0 -9 -117 -90 -145 -100
-32 -12 -56 2 -56 32 0 18 17 50 50 92 115 147 128 166 144 209 23 61 93 159
200 280 76 85 91 98 105 87 14 -11 14 -10 2 6 -13 16 -10 23 30 64 24 26 50
53 57 61 6 7 12 10 12 5 0 -4 5 0 11 10 5 9 15 17 22 16 9 0 9 -2 -1 -6z
m2063 -43 c-4 -7 3 -8 22 -4 l28 7 -25 -29 c-14 -16 -31 -35 -39 -41 -20 -18
-7 -27 18 -13 30 15 26 5 -11 -33 -18 -18 -42 -60 -55 -97 l-23 -65 6 55 c3
30 14 70 25 88 22 38 23 42 9 42 -5 0 -21 -20 -36 -45 -25 -44 -56 -66 -33
-24 7 15 8 24 0 32 -7 7 -12 1 -17 -19 -4 -16 -16 -35 -26 -42 -10 -7 -18 -24
-18 -37 0 -31 -43 -55 -102 -56 -35 0 -39 -2 -23 -10 16 -7 14 -8 -9 -3 -40 7
-83 39 -101 74 -18 34 -18 40 -5 40 6 0 10 -6 10 -14 0 -8 3 -17 8 -19 4 -3 6
20 5 51 -1 47 0 51 6 22 13 -60 28 -80 64 -81 18 0 26 -3 19 -6 -19 -7 -4 -23
23 -23 13 0 34 5 47 11 27 12 108 120 108 143 0 11 5 14 12 10 7 -5 9 -2 6 8
-8 19 1 33 42 63 34 25 77 35 65 15z m3366 -179 c125 -127 176 -194 232 -308
38 -77 67 -120 132 -194 22 -26 48 -60 57 -77 17 -29 17 -31 0 -52 -13 -16
-24 -21 -40 -16 -43 14 -236 149 -303 213 -76 73 -83 95 -45 136 13 14 20 30
16 37 -5 8 -9 5 -13 -9 -10 -39 -26 -22 -25 27 2 36 -4 57 -20 80 -16 21 -19
33 -11 38 6 4 16 -1 21 -10 5 -9 13 -16 19 -16 20 0 -56 126 -120 199 -16 19
-28 38 -25 42 2 4 -5 11 -17 14 -16 5 -18 9 -9 15 10 6 8 16 -9 41 -21 32 -21
32 11 -4 18 -21 85 -91 149 -156z m-2024 157 c-3 -8 -6 -5 -6 6 -1 11 2 17 5
13 3 -3 4 -12 1 -19z m-287 -98 c0 -17 -16 -11 -41 16 l-24 27 33 -17 c17 -9
32 -21 32 -26z m250 -35 c13 -14 21 -25 18 -25 -2 0 -15 11 -28 25 -13 14 -21
25 -18 25 2 0 15 -11 28 -25z m-290 5 c0 -5 -2 -10 -4 -10 -3 0 -8 5 -11 10
-3 6 -1 10 4 10 6 0 11 -4 11 -10z m-523 -240 c67 -146 77 -152 138 -99 30 27
34 34 21 41 -25 14 -19 53 19 128 52 103 69 93 40 -25 -23 -94 -26 -90 61 -88
54 1 73 -2 66 -9 -6 -6 -22 -10 -36 -10 -14 0 -26 -4 -26 -9 0 -17 47 -9 65
11 10 11 14 20 9 20 -5 0 4 11 20 25 35 30 75 32 107 6 l24 -19 0 -259 0 -258
-25 -36 c-69 -100 -148 -130 -237 -90 -60 28 -77 59 -70 128 l6 56 -55 -54
-56 -54 31 53 c18 30 47 69 66 87 19 18 35 40 35 49 0 13 -6 11 -26 -11 -14
-15 -23 -22 -19 -15 7 13 -15 82 -26 82 -4 0 -7 -13 -7 -28 1 -16 -4 -37 -10
-48 -11 -18 -11 -17 -12 6 0 14 -9 36 -19 49 l-19 24 -17 -59 c-23 -81 -32
-90 -60 -64 -20 19 -23 19 -29 5 -3 -9 -1 -25 4 -35 13 -24 13 -33 0 -25 -13
8 -13 2 1 -29 7 -14 16 -23 20 -20 5 3 9 0 9 -5 0 -18 -63 -79 -93 -90 -42
-16 -124 -13 -163 5 -38 18 -87 75 -108 126 -24 56 -54 237 -55 333 -1 50 -4
104 -7 121 -6 30 -4 32 61 63 37 17 76 31 86 31 11 0 35 6 54 14 27 12 36 12
44 2 7 -9 7 -16 0 -23 -8 -8 6 -17 47 -33 32 -12 71 -24 87 -27 15 -3 48 -25
72 -49 25 -24 45 -40 45 -36 0 4 -32 39 -71 77 -87 87 -99 108 -99 186 l0 61
36 -53 c20 -30 52 -88 71 -129z m812 -24 c20 -14 65 -52 100 -85 62 -58 64
-62 51 -86 -9 -17 -19 -23 -34 -20 -12 2 -42 7 -68 10 -25 3 -52 13 -58 20
-16 19 -41 19 -34 1 3 -7 -2 -16 -11 -20 -12 -4 -19 0 -22 14 -3 11 -9 17 -14
15 -4 -3 -14 14 -21 37 l-13 43 -3 -43 c-2 -24 3 -65 11 -91 13 -45 13 -49 -5
-60 -13 -8 -24 -8 -38 -1 -15 8 -20 8 -20 -2 0 -7 -5 -5 -11 5 -6 10 -12 81
-12 160 l-2 142 33 -1 c17 0 32 3 32 7 0 13 102 -20 139 -45z m-1864 18 c14
-15 25 -30 25 -34 0 -12 -118 -53 -135 -46 -23 8 -18 22 21 66 43 47 56 49 89
14z m470 18 c6 -4 18 -20 28 -35 20 -31 37 -28 30 6 -3 19 -2 18 12 -6 11 -19
19 -69 25 -155 4 -70 6 -129 5 -131 -2 -1 -9 15 -15 38 -15 56 -22 51 -14 -10
l7 -51 -29 4 -29 3 0 85 c-1 47 -2 101 -4 120 -2 32 -3 33 -11 12 -22 -53 -71
-112 -94 -112 -13 0 -43 -15 -67 -33 -45 -34 -80 -48 -134 -51 -16 -1 -38 -6
-48 -10 -16 -8 -16 -6 -6 18 7 14 16 26 20 26 4 0 22 24 40 53 65 104 124 173
174 204 49 30 90 40 110 25z m1885 -33 c0 -24 -22 -24 -44 0 -17 18 -17 20 1
29 22 13 43 -2 43 -29z m-4174 -98 c-9 -16 -12 -32 -8 -36 4 -5 -1 -5 -11 -2
-15 6 -17 3 -12 -16 5 -19 4 -19 -5 -5 -11 17 5 58 22 58 5 0 8 7 8 15 0 8 5
15 10 15 6 0 4 -12 -4 -29z m3461 -143 c-3 -7 -5 -2 -5 12 0 14 2 19 5 13 2
-7 2 -19 0 -25z m326 13 c27 -10 34 -34 19 -59 -11 -16 -88 24 -111 57 l-16
24 40 -5 c22 -3 52 -11 68 -17z m-1628 -67 c-56 -74 -138 -144 -167 -144 -31
0 -30 13 4 62 27 39 174 136 186 123 3 -2 -8 -21 -23 -41z m102 -6 c-3 -8 -6
-5 -6 6 -1 11 2 17 5 13 3 -3 4 -12 1 -19z m-262 -38 c-20 -22 -31 -20 -22 5
4 8 14 15 23 15 16 0 16 -2 -1 -20z m1826 -6 c38 -19 31 -28 -16 -20 -21 4
-35 13 -35 21 0 19 14 19 51 -1z m-1551 -40 c0 -2 -11 2 -25 8 -14 6 -25 15
-25 20 0 5 11 1 25 -8 14 -9 25 -18 25 -20z m1402 -68 c-3 -5 0 -6 7 -2 6 4
17 3 24 -2 20 -16 105 -30 115 -20 6 6 16 -8 28 -39 10 -26 30 -66 45 -88 40
-61 109 -175 109 -181 0 -4 -9 4 -21 17 -11 13 -18 18 -14 11 3 -7 -1 -15 -11
-19 -21 -8 -233 98 -265 134 -18 19 -19 25 -7 20 12 -4 15 -2 11 9 -6 15 12
20 21 5 3 -5 15 -11 27 -14 19 -5 20 -4 5 11 -10 12 -12 22 -6 32 7 12 13 11
33 -8 27 -25 39 -28 31 -8 -3 8 -18 19 -34 26 -32 13 -66 48 -104 104 -30 45
-34 64 -8 39 11 -10 17 -22 14 -27z m-1481 -113 c-45 -85 -176 -173 -256 -173
-28 0 -51 -7 -69 -21 -26 -21 -26 -20 8 48 19 37 49 85 68 106 l33 38 41 -20
c46 -23 92 -17 146 18 40 25 41 25 29 4z m855 -255 c22 -9 55 -20 74 -25 32
-8 35 -12 35 -46 0 -46 -32 -80 -88 -96 -50 -13 -70 -1 -99 59 -23 47 -35 141
-23 187 l6 27 28 -45 c19 -30 41 -50 67 -61z m-1071 2 c18 -20 18 -22 -4 -84
-12 -35 -26 -97 -29 -138 -7 -73 -8 -75 -95 -194 -48 -66 -101 -152 -118 -190
-16 -38 -37 -84 -45 -101 -30 -67 -45 -120 -55 -196 -20 -157 -72 -238 -104
-161 -11 27 -12 46 -3 97 12 71 52 217 67 244 6 10 24 71 41 135 32 123 95
289 162 423 28 56 57 96 97 132 31 29 59 53 62 53 3 0 14 -9 24 -20z m922 -86
c-2 -91 -5 -108 -20 -118 -15 -9 -23 -6 -43 17 -28 32 -32 90 -9 121 18 24 19
39 3 31 -7 -4 3 7 22 24 19 17 38 31 42 31 4 0 6 -48 5 -106z m860 29 c-10 -9
-14 -2 -21 37 l-6 35 17 -32 c9 -18 13 -36 10 -40z m194 -16 c76 -85 106 -142
184 -347 113 -295 137 -376 143 -467 3 -62 1 -83 -8 -83 -8 0 -10 8 -7 21 4
16 3 18 -8 9 -9 -8 -15 -8 -20 0 -3 5 -1 10 5 10 17 0 1 51 -33 102 -17 26
-34 45 -37 43 -7 -4 -38 66 -70 159 -26 76 -57 129 -142 243 -85 114 -95 137
-109 258 -10 81 -9 99 2 106 28 17 45 8 100 -54z m-1155 8 c-8 -8 -18 -15 -22
-15 -3 0 -1 7 6 15 7 8 17 15 22 15 5 0 3 -7 -6 -15z m947 -60 c-3 -9 -8 -14
-10 -11 -3 3 -2 9 2 15 9 16 15 13 8 -4z m2225 -120 c-3 -3 -9 2 -12 12 -6 14
-5 15 5 6 7 -7 10 -15 7 -18z m-3474 -40 c-4 -15 -2 -25 4 -25 6 0 12 7 14 15
2 12 18 7 75 -22 75 -39 173 -116 256 -201 39 -40 45 -50 32 -56 -9 -3 -13 -2
-10 4 3 5 -4 14 -15 20 -11 6 -20 7 -20 3 0 -4 -4 -3 -8 2 -20 28 -139 120
-187 146 l-55 29 13 -28 c6 -15 16 -30 22 -34 5 -4 7 -10 3 -13 -4 -4 -14 6
-24 22 -43 71 -60 93 -72 98 -14 5 -13 3 30 -62 35 -51 61 -113 49 -113 -19 0
-87 89 -104 136 -19 54 -22 104 -7 104 6 0 8 -11 4 -25z m772 -57 c-9 -13 -21
-33 -26 -45 -5 -13 -13 -23 -17 -23 -5 0 -24 -14 -43 -31 l-35 -31 57 31 c65
35 68 36 68 19 0 -15 -72 -63 -143 -97 -26 -13 -45 -26 -42 -31 7 -11 140 -74
199 -94 27 -9 74 -17 105 -17 l56 -1 -28 -24 c-16 -13 -36 -24 -45 -24 -28 0
-124 28 -135 39 -6 6 -19 11 -29 11 -10 0 -25 11 -34 25 -9 14 -19 23 -22 20
-3 -3 -15 3 -26 14 -26 23 -88 44 -109 35 -23 -8 -71 30 -54 44 23 18 248 152
256 152 4 0 18 11 31 25 29 31 38 32 16 3z m2185 -23 c8 -17 9 -15 5 8 -4 30
17 48 35 30 20 -20 77 -269 103 -443 35 -240 40 -340 26 -520 -25 -346 -101
-630 -238 -900 -68 -133 -148 -270 -159 -270 -15 0 -153 86 -153 96 0 2 9 -1
20 -8 10 -7 21 -10 23 -8 37 45 200 402 247 540 101 302 146 596 137 890 -8
228 -22 328 -85 610 -5 23 -4 24 13 10 9 -8 21 -23 26 -35z m-5066 5 c4 -6 0
-41 -9 -78 -41 -183 -50 -275 -50 -512 -1 -198 3 -258 23 -380 39 -243 123
-548 198 -713 63 -139 177 -310 201 -302 30 11 5 -8 -123 -91 -21 -14 -27 -15
-20 -4 15 24 12 44 -11 62 -63 51 -186 301 -259 523 -89 270 -125 487 -125
755 0 302 41 558 116 715 16 34 46 47 59 25z m5332 -22 c-3 -7 -5 -2 -5 12 0
14 2 19 5 13 2 -7 2 -19 0 -25z m-3258 0 c-4 -35 2 -78 12 -78 18 0 56 -35 51
-48 -2 -6 5 -12 15 -13 10 0 13 -3 6 -6 -19 -7 -16 -24 9 -50 19 -21 20 -23 3
-23 -37 0 -116 65 -144 118 -11 20 -8 29 16 67 30 47 35 53 32 33z m3268 -40
c-3 -8 -6 -5 -6 6 -1 11 2 17 5 13 3 -3 4 -12 1 -19z m10 -50 c-3 -8 -6 -5 -6
6 -1 11 2 17 5 13 3 -3 4 -12 1 -19z m-3077 -33 c11 -13 10 -14 -4 -9 -9 3
-16 10 -16 15 0 13 6 11 20 -6z m3087 -27 c-3 -8 -6 -5 -6 6 -1 11 2 17 5 13
3 -3 4 -12 1 -19z m-2242 -18 c17 -33 21 -65 5 -40 -7 11 -10 6 -10 -20 -1
-30 -2 -32 -11 -16 -8 12 -8 25 -1 41 6 13 7 27 1 36 -5 8 -9 17 -9 22 0 15
10 6 25 -23z m-531 -26 c7 -19 2 -18 -19 6 -16 17 -16 20 -3 15 9 -4 19 -13
22 -21z m2783 -31 c-3 -10 -5 -4 -5 12 0 17 2 24 5 18 2 -7 2 -21 0 -30z
m-3167 -13 c8 -5 11 -10 5 -10 -5 0 -17 5 -25 10 -8 5 -10 10 -5 10 6 0 17 -5
25 -10z m498 -8 c2 -7 -2 -10 -12 -6 -9 3 -16 11 -16 16 0 13 23 5 28 -10z
m-40 -17 c-3 -3 -9 2 -12 12 -6 14 -5 15 5 6 7 -7 10 -15 7 -18z m-488 -61
c110 -55 149 -79 141 -87 -7 -7 -16 -6 -30 7 -11 10 -24 15 -30 12 -6 -4 -27
2 -48 12 -21 11 -63 27 -94 36 -31 9 -62 23 -69 31 -11 14 -99 32 -127 27 -22
-5 -14 18 10 28 53 21 92 11 247 -66z m-181 4 c-9 -6 -3 -7 19 -3 20 4 32 3
32 -4 0 -6 -8 -8 -17 -4 -11 4 -15 2 -10 -3 5 -5 22 -9 39 -10 28 -2 143 -53
135 -60 -2 -2 -26 5 -53 15 -151 59 -215 68 -282 44 -15 -6 -14 -3 2 15 16 18
29 22 84 21 44 -1 60 -4 51 -11z m285 -94 c5 -14 4 -15 -9 -4 -17 14 -19 20
-6 20 5 0 12 -7 15 -16z m1469 -83 c2 -45 0 -74 -4 -63 -8 22 -12 61 -10 116
2 68 11 33 14 -53z m-1348 -17 c20 -37 34 -68 32 -70 -2 -3 -21 27 -41 66 -47
89 -40 92 9 4z m-427 31 c-7 -7 -132 -55 -135 -52 -2 2 15 12 37 23 22 10 40
22 40 26 0 4 7 4 17 1 10 -4 14 -2 10 4 -5 7 0 9 13 6 12 -3 19 -7 18 -8z
m235 -44 c49 -19 68 -51 66 -111 -2 -53 -16 -114 -19 -80 -1 18 -34 -41 -51
-90 -20 -61 -96 -164 -174 -238 -42 -40 -77 -72 -78 -72 -1 0 -2 85 -2 189 0
104 -4 187 -9 184 -11 -7 0 29 29 93 41 93 159 155 238 125z m-263 -6 c0 -8
-121 -66 -131 -63 -16 6 6 24 56 45 50 21 75 27 75 18z m1939 -99 c-3 -3 -11
5 -18 17 -13 21 -12 21 5 5 10 -10 16 -20 13 -22z m-2069 4 c0 -3 -32 -18 -72
-35 -39 -16 -94 -50 -122 -75 -28 -24 -42 -33 -31 -20 57 71 156 141 197 138
15 -1 28 -5 28 -8z m2069 -55 c0 -5 -6 1 -14 15 -8 14 -14 30 -14 35 0 6 6 -1
14 -15 8 -14 14 -29 14 -35z m-1178 -37 c38 -24 69 -46 69 -51 0 -4 -11 -1
-24 8 -13 8 -30 13 -38 10 -8 -3 -29 10 -51 35 -21 22 -35 40 -31 40 3 0 37
-19 75 -42z m-394 10 c-3 -8 -6 -5 -6 6 -1 11 2 17 5 13 3 -3 4 -12 1 -19z
m731 -359 c167 -54 175 -57 138 -58 -29 -1 -169 43 -246 77 -73 33 -29 25 108
-19z m-512 -47 c6 -4 24 -28 42 -53 29 -44 34 -47 89 -53 32 -4 121 -11 198
-15 l140 -8 170 -67 c94 -37 203 -81 243 -97 135 -54 476 -213 562 -262 47
-27 139 -83 204 -124 66 -42 196 -115 290 -162 94 -48 196 -104 226 -125 l55
-39 -128 7 -129 6 -160 113 c-88 61 -183 130 -212 153 -72 56 -168 109 -331
180 -77 34 -212 94 -300 134 -439 199 -551 234 -816 251 -325 21 -579 -17
-864 -129 -205 -80 -629 -288 -805 -394 -41 -25 -131 -78 -200 -118 -69 -40
-159 -94 -200 -120 -65 -42 -86 -50 -161 -60 -47 -7 -92 -11 -99 -8 -18 6 118
94 325 210 94 53 211 119 260 148 187 109 869 441 984 479 53 17 294 40 403
38 94 -1 98 -1 126 27 17 15 38 43 48 62 20 36 23 38 40 26z m774 -132 c8 -5
11 -10 5 -10 -5 0 -17 5 -25 10 -8 5 -10 10 -5 10 6 0 17 -5 25 -10z m45 -28
c-3 -3 -11 0 -18 7 -9 10 -8 11 6 5 10 -3 15 -9 12 -12z m75 -27 c14 -8 21
-14 15 -14 -5 0 -21 6 -35 14 -14 8 -20 14 -15 14 6 0 21 -6 35 -14z m90 -40
c25 -13 41 -24 35 -24 -5 0 -30 11 -55 24 -25 13 -40 24 -35 24 6 0 30 -11 55
-24z m110 -50 c25 -13 41 -24 35 -24 -5 0 -30 11 -55 24 -25 13 -40 24 -35 24
6 0 30 -11 55 -24z m155 -75 c3 -6 -1 -7 -9 -4 -18 7 -21 14 -7 14 6 0 13 -4
16 -10z m-1189 -35 c48 -20 74 -42 137 -116 55 -64 55 -64 50 -119 -3 -30 -2
-52 2 -48 10 9 45 -9 45 -23 0 -21 35 -55 52 -51 10 2 25 -4 34 -13 11 -10 25
-14 38 -10 12 3 36 8 54 12 17 3 32 12 32 19 0 8 5 14 11 14 6 0 8 -8 4 -19
-5 -15 1 -21 26 -26 17 -4 27 -10 21 -14 -6 -4 -10 -20 -9 -36 2 -25 7 -31 32
-33 17 -2 34 -10 38 -18 10 -17 34 -18 40 -1 3 9 19 5 58 -15 65 -32 134 -45
154 -28 10 8 15 8 22 -4 4 -8 31 -23 58 -34 l50 -20 -28 -11 c-16 -6 -49 -11
-75 -12 -80 -1 -20 -18 118 -32 l125 -13 -435 -8 c-299 -6 -465 -5 -530 3 -52
6 -112 11 -132 11 -20 -1 -39 4 -43 10 -4 6 12 10 46 10 l52 0 -25 24 c-29 29
-66 131 -75 204 -7 63 -18 74 -31 30 -6 -18 -20 -65 -32 -105 -12 -40 -34 -91
-50 -115 -26 -37 -27 -43 -12 -46 54 -11 16 -20 -110 -24 -139 -6 -870 0 -876
7 -2 2 41 6 95 10 116 8 134 12 113 25 -10 7 -11 10 -2 10 22 0 12 20 -10 20
-33 0 -68 11 -68 21 0 5 14 16 32 25 30 16 75 15 133 -1 13 -4 30 2 44 14 13
12 28 21 32 21 5 0 6 7 2 16 -13 33 67 49 86 17 6 -10 11 -16 11 -13 1 3 3 20
5 38 4 44 14 52 32 25 21 -31 53 -30 53 1 0 24 2 24 54 19 46 -5 59 -2 82 16
14 11 33 21 41 21 10 0 12 6 8 19 -5 17 -2 18 31 11 l36 -8 -5 33 c-4 27 -2
33 9 28 8 -3 17 3 21 13 4 10 18 28 32 41 14 12 20 23 13 23 -7 0 -15 -7 -18
-15 -4 -8 -10 -12 -16 -9 -5 3 -4 12 3 20 16 20 2 31 -21 16 -25 -15 -30 -15
-30 2 0 16 21 26 54 26 16 0 33 15 57 50 33 49 94 101 141 119 34 14 74 13
114 -4z m1283 -11 c14 -12 -19 -1 -35 12 -18 14 -18 14 6 3 14 -6 27 -13 29
-15z m149 -72 c56 -29 102 -56 102 -58 0 -3 -54 23 -120 57 -66 34 -120 63
-120 65 0 6 35 -10 138 -64z m-3058 -37 c0 -2 -18 -14 -40 -25 -22 -11 -40
-18 -40 -15 0 2 17 13 38 24 42 23 42 23 42 16z m3230 -61 c0 -2 -9 0 -20 6
-11 6 -20 13 -20 16 0 2 9 0 20 -6 11 -6 20 -13 20 -16z m-3345 -4 c-3 -6 -21
-17 -38 -26 -36 -19 -31 -9 10 17 34 21 36 22 28 9z m3415 -36 c0 -2 -13 2
-30 11 -16 9 -30 18 -30 21 0 2 14 -2 30 -11 17 -9 30 -18 30 -21z m-1425 -14
c-3 -5 -10 -10 -16 -10 -5 0 -9 5 -9 10 0 6 7 10 16 10 8 0 12 -4 9 -10z
m1675 -134 c80 -48 150 -92 155 -98 6 -7 -1 -5 -15 3 -14 9 -103 62 -198 118
-94 57 -175 107 -178 112 -6 10 12 0 236 -135z m-3760 129 c0 -2 -10 -9 -22
-15 -22 -11 -22 -10 -4 4 21 17 26 19 26 11z m-70 -39 c0 -2 -44 -28 -97 -58
-54 -31 -116 -66 -138 -78 -22 -13 -35 -18 -30 -12 9 9 254 152 262 152 2 0 3
-2 3 -4z m1463 -30 c5 -12 1 -13 -24 -4 -35 12 -37 18 -5 18 13 0 26 -6 29
-14z m-1757 -561 c231 -275 525 -573 688 -695 170 -127 410 -283 547 -354 151
-79 483 -213 719 -291 l175 -58 110 28 c278 71 584 183 840 310 437 216 761
496 1193 1032 45 56 87 105 92 108 33 21 -122 -214 -232 -351 -126 -156 -371
-386 -603 -564 -276 -213 -648 -387 -1195 -562 -189 -60 -187 -60 -383 6 -600
202 -986 395 -1292 645 -314 256 -478 429 -679 715 -75 107 -90 134 -68 120
16 -11 56 -50 88 -89z m280 -90 c159 -194 378 -406 547 -532 168 -125 287
-194 532 -310 187 -89 291 -129 590 -226 l200 -65 155 50 c516 164 543 174
755 280 163 81 318 181 461 296 124 99 353 335 481 495 52 65 97 116 100 113
10 -9 -126 -202 -220 -312 -197 -230 -515 -483 -777 -618 -190 -98 -463 -200
-740 -277 -218 -60 -229 -59 -575 47 -404 124 -762 314 -1089 576 -235 188
-336 304 -545 621 l-15 22 20 -20 c11 -11 65 -74 120 -140z m1548 78 c3 -7 23
-16 46 -19 22 -4 40 -10 40 -13 0 -4 7 -16 15 -27 9 -10 14 -13 13 -5 -2 7 3
16 10 18 6 3 12 -3 12 -12 0 -9 5 -13 10 -10 6 3 10 -2 11 -12 0 -10 3 -13 5
-6 3 6 -2 25 -10 42 -22 42 -20 49 5 17 27 -35 52 -35 43 0 -6 24 -5 25 14 13
14 -9 18 -17 12 -23 -6 -6 -6 -14 0 -21 5 -6 18 -65 29 -131 11 -65 27 -134
36 -151 9 -19 15 -49 13 -70 l-4 -38 -16 35 c-16 34 -19 33 -30 -7 -2 -7 -25
8 -53 35 -27 26 -59 54 -70 62 -11 8 -26 33 -34 54 -7 22 -26 60 -40 85 -15
25 -43 81 -63 123 -32 68 -34 76 -17 75 10 -1 21 -7 23 -14z m387 -65 c-6 -17
-11 -37 -11 -44 0 -23 19 -15 26 10 6 26 44 67 44 48 0 -6 14 3 30 20 21 20
37 28 50 25 11 -3 20 -1 20 4 0 5 5 9 11 9 11 0 10 -12 -6 -55 -4 -11 5 -3 19
18 30 41 51 49 40 15 -4 -13 -35 -82 -70 -155 -43 -88 -74 -139 -93 -154 -15
-11 -38 -38 -50 -59 -33 -59 -47 -57 -60 7 -14 71 -14 236 0 305 16 84 17 84
40 59 18 -19 19 -26 10 -53z m-686 -72 c11 -7 31 -17 43 -21 22 -6 23 -5 12
15 -11 20 -10 21 12 9 13 -6 31 -18 41 -27 11 -10 17 -11 17 -4 0 24 20 11 50
-33 17 -25 44 -52 60 -60 17 -9 30 -22 30 -29 0 -26 43 -67 138 -130 110 -73
126 -81 201 -96 51 -10 58 -9 115 19 71 33 163 119 190 175 13 28 17 52 13 89
-4 33 -2 46 4 40 6 -6 11 -24 11 -41 1 -28 2 -30 22 -17 12 7 39 18 61 25 39
13 64 26 153 77 32 19 42 22 42 10 0 -8 -7 -20 -15 -27 -16 -13 -20 -30 -7
-30 5 0 27 16 49 35 52 44 66 45 27 3 -34 -38 -58 -78 -46 -78 4 0 13 5 20 12
7 7 12 8 12 2 0 -5 -18 -27 -40 -49 -44 -43 -46 -59 -4 -26 15 11 31 21 36 21
16 0 -23 -48 -62 -75 -40 -27 -44 -51 -9 -42 24 6 24 -3 2 -47 -13 -24 -37
-45 -84 -70 -37 -20 -72 -43 -79 -51 -9 -10 -23 -13 -49 -9 -30 5 -43 0 -80
-26 -27 -20 -59 -34 -84 -36 -38 -4 -82 -15 -135 -35 -12 -5 -25 -17 -28 -26
-21 -67 -23 -67 -81 -8 -50 51 -58 55 -101 55 -67 1 -147 30 -145 53 0 11 -9
23 -25 29 -15 6 -49 21 -77 33 -27 12 -62 25 -76 28 -45 11 -44 34 2 42 36 6
55 25 27 25 -50 2 -151 20 -163 30 -39 32 -1 41 39 9 14 -11 30 -18 36 -14 18
11 -11 60 -68 112 -42 38 -54 55 -44 61 7 5 10 16 6 26 -6 16 -4 17 14 7 21
-11 62 -15 62 -6 0 2 -19 22 -42 44 -42 39 -43 55 -3 27z m-1600 -36 c10 -11
16 -20 13 -20 -3 0 -13 9 -23 20 -10 11 -16 20 -13 20 3 0 13 -9 23 -20z
m1870 -10 c3 -5 -1 -10 -9 -10 -9 0 -16 5 -16 10 0 6 4 10 9 10 6 0 13 -4 16
-10z m-35 -25 c10 -12 10 -15 -4 -15 -9 0 -16 7 -16 15 0 8 2 15 4 15 2 0 9
-7 16 -15z m-1759 -57 c29 -35 46 -57 36 -49 -20 16 -101 111 -94 111 2 0 28
-28 58 -62z m84 -98 c10 -11 16 -20 13 -20 -3 0 -13 9 -23 20 -10 11 -16 20
-13 20 3 0 13 -9 23 -20z m4105 -53 c0 -2 -17 -19 -37 -38 l-38 -34 34 38 c33
34 41 42 41 34z m-120 -120 c0 -1 -24 -25 -52 -52 l-53 -50 50 53 c46 48 55
57 55 49z m-3755 -57 c10 -11 16 -20 13 -20 -3 0 -13 9 -23 20 -10 11 -16 20
-13 20 3 0 13 -9 23 -20z m3605 -83 c0 -2 -15 -16 -32 -33 l-33 -29 29 33 c28
30 36 37 36 29z m-85 -76 c-3 -5 -24 -24 -48 -41 l-42 -32 45 41 c46 41 56 48
45 32z m-100 -81 c-3 -5 -20 -19 -38 -30 -32 -22 -32 -22 3 9 37 32 45 37 35
21z m-80 -60 c-3 -5 -20 -19 -38 -30 -32 -22 -32 -22 3 9 37 32 45 37 35 21z
m-105 -80 c-32 -26 -102 -71 -89 -57 9 10 114 86 119 86 3 0 -11 -13 -30 -29z
m-100 -65 c0 -2 -10 -9 -22 -15 -22 -11 -22 -10 -4 4 21 17 26 19 26 11z m-50
-30 c0 -2 -10 -9 -22 -15 -22 -11 -22 -10 -4 4 21 17 26 19 26 11z m-2270
-111 c0 -2 -9 0 -20 6 -11 6 -20 13 -20 16 0 2 9 0 20 -6 11 -6 20 -13 20 -16z"/>
<path d="M2668 8203 c7 -3 16 -2 19 1 4 3 -2 6 -13 5 -11 0 -14 -3 -6 -6z"/>
<path d="M7275 7860 c3 -5 8 -10 11 -10 2 0 4 5 4 10 0 6 -5 10 -11 10 -5 0
-7 -4 -4 -10z"/>
<path d="M7095 7680 c3 -5 10 -10 16 -10 5 0 9 5 9 10 0 6 -7 10 -16 10 -8 0
-12 -4 -9 -10z"/>
<path d="M6885 7070 c-3 -5 -2 -10 4 -10 5 0 13 5 16 10 3 6 2 10 -4 10 -5 0
-13 -4 -16 -10z"/>
<path d="M6355 6441 c-31 -11 -45 -20 -37 -25 7 -4 19 -3 26 3 7 6 28 12 47
14 19 1 33 7 32 12 -2 15 -14 14 -68 -4z"/>
<path d="M3535 7260 c-3 -6 1 -7 9 -4 18 7 21 14 7 14 -6 0 -13 -4 -16 -10z"/>
<path d="M3585 7170 c3 -5 10 -10 16 -10 5 0 9 5 9 10 0 6 -7 10 -16 10 -8 0
-12 -4 -9 -10z"/>
<path d="M3620 7130 c8 -5 20 -10 25 -10 6 0 3 5 -5 10 -8 5 -19 10 -25 10 -5
0 -3 -5 5 -10z"/>
<path d="M3523 7083 c-14 -5 -18 -23 -5 -23 5 0 17 7 28 15 14 11 15 14 4 14
-8 0 -21 -3 -27 -6z"/>
<path d="M3735 6500 c-8 -13 5 -13 25 0 13 8 13 10 -2 10 -9 0 -20 -4 -23 -10z"/>
<path d="M8595 7290 c11 -5 27 -9 35 -9 9 0 8 4 -5 9 -11 5 -27 9 -35 9 -9 0
-8 -4 5 -9z"/>
<path d="M8290 7265 c0 -14 34 -55 45 -55 7 0 15 -7 19 -15 3 -8 11 -15 18
-14 10 0 10 2 1 6 -7 2 -13 10 -13 16 0 7 -16 25 -35 40 -19 15 -35 25 -35 22z"/>
<path d="M5190 7395 c-8 -9 -8 -15 -2 -15 12 0 26 19 19 26 -2 2 -10 -2 -17
-11z"/>
<path d="M4776 7165 c-9 -26 -7 -32 5 -12 6 10 9 21 6 23 -2 3 -7 -2 -11 -11z"/>
<path d="M4808 7133 c-27 -29 -47 -83 -31 -83 5 0 20 19 33 43 13 23 31 47 39
54 15 11 15 12 0 13 -8 0 -27 -12 -41 -27z"/>
<path d="M5280 7059 c0 -5 5 -7 10 -4 6 3 10 8 10 11 0 2 -4 4 -10 4 -5 0 -10
-5 -10 -11z"/>
<path d="M4485 6800 c-18 -8 -17 -9 7 -9 15 -1 30 4 33 9 7 12 -12 12 -40 0z"/>
<path d="M4570 6790 c-9 -6 -10 -10 -3 -10 6 0 15 5 18 10 8 12 4 12 -15 0z"/>
<path d="M5135 6770 c-4 -6 -18 -7 -33 -4 l-27 6 25 -21 c14 -11 31 -18 38
-16 8 3 18 5 23 5 5 0 9 6 9 14 0 17 -27 29 -35 16z"/>
<path d="M5084 6690 c-30 -12 -39 -30 -16 -30 15 0 19 -5 15 -20 -4 -14 1 -21
20 -25 40 -10 81 -2 85 17 3 16 -2 17 -45 11 -28 -3 -44 -2 -40 3 9 9 14 10
80 13 45 1 48 15 6 30 -37 13 -75 13 -105 1z"/>
<path d="M2345 7160 c-3 -5 -2 -10 4 -10 5 0 13 5 16 10 3 6 2 10 -4 10 -5 0
-13 -4 -16 -10z"/>
<path d="M2286 7114 c-5 -14 -4 -15 9 -4 17 14 19 20 6 20 -5 0 -12 -7 -15
-16z"/>
<path d="M8506 6755 c10 -8 23 -15 28 -15 6 0 1 7 -10 15 -10 8 -23 15 -28 15
-6 0 -1 -7 10 -15z"/>
<path d="M8000 6311 c0 -6 4 -13 10 -16 6 -3 7 1 4 9 -7 18 -14 21 -14 7z"/>
<path d="M7970 6180 c0 -5 5 -10 11 -10 5 0 8 -4 4 -9 -3 -5 -1 -12 4 -15 5
-4 8 2 6 11 -2 10 -4 21 -4 26 -1 11 -21 8 -21 -3z"/>
<path d="M5565 6119 c-4 -6 -5 -12 -2 -15 2 -3 7 2 10 11 7 17 1 20 -8 4z"/>
<path d="M4684 6047 c7 -60 35 -141 43 -121 4 12 -34 165 -44 174 -3 3 -3 -21
1 -53z"/>
<path d="M5110 6050 c0 -5 5 -10 11 -10 5 0 7 5 4 10 -3 6 -8 10 -11 10 -2 0
-4 -4 -4 -10z"/>
<path d="M5821 6124 c0 -11 3 -14 6 -6 3 7 2 16 -1 19 -3 4 -6 -2 -5 -13z"/>
<path d="M4336 6195 c-11 -8 -18 -17 -15 -19 2 -2 15 4 28 15 27 22 15 26 -13
4z"/>
<path d="M4551 6174 c0 -11 3 -14 6 -6 3 7 2 16 -1 19 -3 4 -6 -2 -5 -13z"/>
<path d="M4264 6094 c-18 -14 -18 -15 4 -4 12 6 22 13 22 15 0 8 -5 6 -26 -11z"/>
<path d="M7341 3096 c-11 -13 -5 -26 10 -26 5 0 5 8 2 18 -6 15 -5 15 10 3 10
-8 19 -12 22 -10 2 3 -4 10 -15 16 -14 9 -21 9 -29 -1z"/>
<path d="M2715 3250 c4 -6 11 -8 16 -5 14 9 11 15 -7 15 -8 0 -12 -5 -9 -10z"/>
<path d="M2810 3222 c0 -10 -8 -12 -30 -7 -19 4 -30 3 -30 -4 0 -6 5 -12 10
-12 6 -1 14 -2 19 -3 18 -2 23 -15 11 -33 -10 -16 -10 -15 -4 6 5 20 4 22 -8
11 -11 -11 -12 -19 -4 -37 12 -25 29 -32 20 -8 -9 21 10 19 31 -5 10 -11 14
-20 9 -20 -5 0 -2 -5 6 -11 13 -9 13 -10 0 -6 -8 2 -14 10 -12 16 3 14 -15 15
-23 1 -3 -5 5 -15 19 -22 20 -9 23 -14 15 -25 -20 -23 5 -14 54 21 46 33 46
34 23 40 -18 4 -24 11 -19 23 4 11 3 14 -5 9 -8 -5 -10 -2 -6 8 5 12 -1 16
-21 16 -20 0 -26 4 -21 16 3 8 2 12 -3 9 -6 -3 -14 3 -20 12 -7 11 -11 13 -11
5z"/>
<path d="M4675 4770 c3 -4 16 -10 30 -12 13 -3 22 -2 20 2 -3 4 -16 10 -30 12
-13 3 -22 2 -20 -2z"/>
<path d="M5107 3885 c-4 -8 -2 -17 3 -20 6 -4 10 3 10 14 0 25 -6 27 -13 6z"/>
</g>
</svg>
