<svg width="512" height="512" xmlns="http://www.w3.org/2000/svg" preserveAspectRatio="xMidYMid meet">

 <g>
  <title>background</title>
  <rect fill="none" id="canvas_background" height="402" width="582" y="-1" x="-1"/>
 </g>
 <g>
  <title>Layer 1</title>
  <g id="svg_1" fill="#000000" transform="translate(0,512) scale(0.10000000149011612,-0.10000000149011612) ">
   <path id="svg_2" d="m2125,5089c-1545,-271 -2484,-1832 -1995,-3320c276,-840 961,-1476 1816,-1688c470,-116 983,-96 1444,59c608,203 1131,648 1434,1220c134,255 231,555 270,842c23,167 30,298 17,346c-13,48 -60,106 -104,129c-40,20 -126,19 -168,-3c-19,-9 -90,-74 -159,-143c-318,-322 -694,-481 -1138,-481c-430,0 -825,169 -1127,481c-306,316 -458,713 -442,1149c16,405 155,735 439,1037c84,90 102,118 112,175c14,75 -41,175 -110,204c-45,19 -157,16 -289,-7zm-323,-541c-118,-212 -200,-500 -222,-783c-32,-406 72,-824 290,-1177c155,-249 389,-483 639,-638c572,-355 1273,-396 1880,-109c68,32 152,77 187,99c35,22 66,40 68,40c13,0 -81,-248 -138,-365c-289,-600 -831,-1026 -1481,-1165c-167,-36 -267,-45 -480,-44c-173,0 -233,4 -340,23c-452,80 -849,285 -1168,604c-322,322 -523,702 -608,1152c-27,139 -37,477 -20,622c83,695 458,1272 1059,1631c89,53 322,160 350,162c10,0 4,-17 -16,-52z"/>
  </g>
  <path id="svg_8" d="m147.910297,120.895399l-19.552219,-4.477608" opacity="0.5" fill-opacity="null" stroke-opacity="null" stroke-width="0" stroke="#000" fill="#aabfd0"/>
  <path id="svg_11" d="m180.999997,49.152539c0,0 -30.508472,15.254236 -31.00001,15.254235c0.491538,0.000001 -32.559307,22.033898 -32.559307,22.033898c0,0 -25.423727,27.118642 -25.915264,27.11864c0.491537,0.000002 -24.93219,33.050847 -24.93219,33.050847c0,0 -16.949151,44.067793 -17.440688,44.06779c0.491536,0.000003 -9.677955,31.355933 -10.169491,31.355929c0.491536,0.000004 -1.203379,31.355934 -1.694915,31.355929c0.491536,0.000004 4.728824,42.372882 4.728824,42.372882c0,0 11.016948,35.593218 10.525412,35.593212c0.491536,0.000005 13.2034,29.66102 13.2034,29.66102c0,0 17.796609,25.423727 17.796609,25.423727c0,0 22.033897,25.423727 21.54236,24.576263c0.491537,0.000007 21.677976,18.644073 21.677976,18.644073c0,0 20.338982,13.559321 19.847444,13.559314c0.491538,0.000007 20.830519,11.864413 20.338981,11.864406c0.491538,0.000007 36.084756,11.016956 35.593217,11.016948c0.491539,0.000008 26.762723,5.084753 26.271184,5.084745c0.491539,0.000008 22.525436,0.000008 22.525436,0.000008c0,0 14.406779,-0.847458 13.915239,-0.847465c0.49154,0.000008 18.288149,-0.84745 17.796609,-0.847458c0.49154,0.000008 26.762725,-3.389823 26.271184,-3.38983c0.491541,0.000008 20.830522,-6.779653 20.338981,-6.77966c0.491541,0.000008 25.915268,-10.169483 25.423727,-10.169491c0.491541,0.000007 29.305099,-18.644059 28.813557,-18.644066c0.491542,0.000007 18.288151,-14.406772 17.796609,-14.406778c0.491542,0.000007 20.830524,-22.03389 20.338981,-22.033896c0.491542,0.000006 14.050863,-19.491518 13.559321,-19.491524c0.491543,0.000006 20.830524,-27.966094 20.830524,-27.966094c0,0 7.627118,-33.898303 7.627118,-33.898303c0,0 -11.864406,7.627118 -12.355949,7.627113c0.491543,0.000005 -26.627099,11.016954 -26.627099,11.016954c0,0 -22.033897,9.322033 -22.525439,9.322028c0.491542,0.000006 -24.932185,4.237293 -25.423727,4.237288c0.491542,0.000006 -30.016931,0.847463 -30.016931,0.847463c0,0 -29.661015,-3.38983 -30.152555,-3.389836c0.491541,0.000006 -24.084729,-5.932197 -24.576269,-5.932203c0.49154,0.000006 -23.237272,-9.322028 -23.728811,-9.322033c0.49154,0.000005 -19.847442,-9.322028 -19.847442,-9.322028c0,0 -8.474576,-9.322033 -8.966115,-9.322038c0.491539,0.000005 -13.067782,-11.016943 -13.559321,-11.016948c0.491539,0.000005 -18.999985,-17.796604 -19.491524,-17.796609c0.491539,0.000005 -16.457612,-22.88135 -16.949151,-22.881354c0.491539,0.000004 -13.067782,-26.27118 -13.559321,-26.271184c0.491538,0.000004 -8.830495,-21.186435 -9.322033,-21.186439c0.491538,0.000003 -5.440665,-23.728808 -5.932203,-23.728811c0.491538,0.000003 -3.74575,-29.661012 -4.237288,-29.661014c0.491538,0.000003 3.033911,-35.593215 2.542373,-35.593217c0.491538,0.000002 7.271199,-29.661013 6.77966,-29.661014c0.491538,0.000001 9.813571,-27.118641 9.322033,-27.118642c0.491538,0.000001 5.576284,-14.406778 5.576284,-14.406778z" fill-opacity="null" stroke-opacity="null" stroke-width="0" stroke="#000" fill="#aabfd0"/>
 </g>
</svg>